<?xml version="1.0" encoding="UTF-8" standalone="no"?>
<svg
   xmlns:dc="http://purl.org/dc/elements/1.1/"
   xmlns:cc="http://creativecommons.org/ns#"
   xmlns:rdf="http://www.w3.org/1999/02/22-rdf-syntax-ns#"
   xmlns:svg="http://www.w3.org/2000/svg"
   xmlns="http://www.w3.org/2000/svg"
   xmlns:sodipodi="http://sodipodi.sourceforge.net/DTD/sodipodi-0.dtd"
   xmlns:inkscape="http://www.inkscape.org/namespaces/inkscape"
   viewBox="0 0 512 512"
   id="svg2"
   version="1.1"
   inkscape:version="0.91 r13725"
   sodipodi:docname="download.svg">
  <metadata
     id="metadata10">
    <rdf:RDF>
      <cc:Work
         rdf:about="">
        <dc:format>image/svg+xml</dc:format>
        <dc:type
           rdf:resource="http://purl.org/dc/dcmitype/StillImage" />
      </cc:Work>
    </rdf:RDF>
  </metadata>
  <defs
     id="defs8" />
  <sodipodi:namedview
     pagecolor="#ffffff"
     bordercolor="#666666"
     borderopacity="1"
     objecttolerance="10"
     gridtolerance="10"
     guidetolerance="10"
     inkscape:pageopacity="0"
     inkscape:pageshadow="2"
     inkscape:window-width="2560"
     inkscape:window-height="1304"
     id="namedview6"
     showgrid="false"
     inkscape:zoom="1.3037281"
     inkscape:cx="-15.924749"
     inkscape:cy="257.9453"
     inkscape:window-x="0"
     inkscape:window-y="64"
     inkscape:window-maximized="1"
     inkscape:current-layer="svg2" />
  <path
     sodipodi:type="inkscape:offset"
     inkscape:radius="24.582832"
     inkscape:original="M 298.09766 -2.03125 C 296.41319 -2.1950086 294.70526 -2.1906215 293 -2 C 267.11786 -1.9947 241.23558 -2.0105375 215.35352 -1.9921875 C 200.87828 -2.0718641 188.6699 11.678908 190 26 L 190 190 C 160.21486 190.20412 130.3885 189.6057 100.62695 190.27344 C 85.74169 192.00984 77.081932 210.98267 85.414062 223.40039 C 95.127646 235.32279 107.17458 245.25645 117.68555 256.49609 C 159.6785 298.21451 201.20593 340.44986 243.48438 381.85156 C 252.8526 389.04838 267.05113 386.16566 273.94141 376.88477 C 324.26212 326.38178 374.89119 276.16567 425.02148 225.48633 C 434.58938 214.33773 428.5894 194.99276 414.50391 191.0332 C 402.80969 188.49133 390.57831 190.77221 378.69922 190 L 322 190 C 321.85246 133.55537 322.29056 77.08593 321.78906 20.65625 C 320.57272 8.5429455 309.88892 -0.88494011 298.09766 -2.03125 z M 490.01758 349.96484 C 488.35794 349.80801 486.67817 349.81473 485 350 L 340.47266 350 C 322.23185 367.78827 304.83454 386.4971 286.12891 403.7793 C 267.02378 419.1507 237.08171 416.94445 220.38867 398.86133 L 171.52734 350 C 122.13608 350.005 72.744692 349.98931 23.353516 350.00781 C 8.8785378 349.9284 -3.3299728 363.67901 -2 378 C -1.7783751 415.9748 -2.4271354 453.99365 -1.7050781 491.94336 C -0.011603255 505.52972 13.574836 515.48223 27 514 C 181.56034 513.9097 336.13268 514.18029 490.68555 513.86523 C 504.80337 512.81869 515.57285 498.88112 514 485 C 513.77801 447.35855 514.42763 409.67299 513.70508 372.05664 C 512.22289 360.16886 501.63507 351.06268 490.01758 349.96484 z M 368.93359 446.02344 C 383.49342 446.06544 391.70196 465.784 381.32227 476.07031 C 372.11183 487.38599 351.73366 481.21248 350.21289 466.75 C 348.2567 455.81667 357.86005 445.20463 368.93359 446.02344 z M 432.93359 446.02344 C 447.49342 446.06544 455.70196 465.784 445.32227 476.07031 C 436.11183 487.38599 415.73366 481.21248 414.21289 466.75 C 412.2567 455.81667 421.86005 445.20463 432.93359 446.02344 z "
     style="fill:#b3b3b3"
     id="path4142"
     d="m 295.42773,-26.730469 c -0.84641,0.0044 -1.70805,0.09931 -2.5625,0.148438 -25.77512,0.0052 -51.56712,-0.01035 -77.37695,0.0078 -30.11894,-0.165785 -52.7099,25.2917705 -49.96484,54.847657 L 165.41797,26 l 0,139.39453 c -21.52432,-0.0608 -43.24547,-0.19302 -65.3418,0.30274 a 24.585291,24.585291 0 0 0 -2.296873,0.1582 C 63.514217,169.85257 45.821685,208.51542 65,237.09766 a 24.585291,24.585291 0 0 0 1.355469,1.83007 c 11.776787,14.45477 24.328957,24.68622 33.375,34.35938 a 24.585291,24.585291 0 0 0 0.628911,0.64844 c 17.17719,17.06489 34.31411,34.27893 51.47851,51.48437 -42.77711,4.1e-4 -85.558937,-0.0101 -128.349609,0.006 -30.118528,-0.16523 -52.709667,25.29173 -49.964843,54.84766 l -0.105469,-2.13086 c 0.219432,37.59908 -0.434498,75.72563 0.298828,114.26758 a 24.585291,24.585291 0 0 0 0.183594,2.57422 c 3.507289,28.13817 28.6429843,46.44719 55.796875,43.44921 l -2.683594,0.14844 c 154.522068,-0.0903 309.107678,0.18042 463.722658,-0.13476 a 24.585291,24.585291 0 0 0 1.76562,-0.0664 c 28.38498,-2.10415 47.87366,-26.4752 46.08008,-53.67578 -0.21713,-37.21351 0.43423,-74.95773 -0.29883,-113.1211 a 24.585291,24.585291 0 0 0 -0.18359,-2.56836 c -3.06978,-24.6209 -22.86905,-41.36132 -45.76953,-43.52539 -2.44817,-0.23134 -4.95593,-0.21711 -7.48047,-0.0723 l -124.82227,0 c 27.5263,-27.50599 55.05733,-54.93091 82.47071,-82.64453 a 24.585291,24.585291 0 0 0 1.17773,-1.27735 c 22.02857,-25.66787 9.89638,-65.01649 -22.51953,-74.1289 a 24.585291,24.585291 0 0 0 -1.43164,-0.35547 c -18.15344,-3.94586 -31.76947,-1.04488 -39.43164,-1.54297 a 24.585291,24.585291 0 0 0 -1.59375,-0.0508 l -32.10938,0 c -0.008,-48.17891 0.21215,-96.495392 -0.21875,-144.98047 a 24.585291,24.585291 0 0 0 -0.12304,-2.238281 c -2.51941,-25.0902566 -22.48348,-42.433277 -45.77149,-44.697266 -1.65967,-0.161348 -3.34503,-0.24136 -5.04883,-0.232422 z m 72.63672,483.874999 c 2.96655,-0.17918 5.5521,1.98975 6.35743,5.95899 0.58107,4.78795 -1.84116,7.46623 -6.63868,7.37695 -6.27369,-0.60653 -8.47914,-6.00421 -4.59375,-10.84375 1.55918,-1.52558 3.25536,-2.39436 4.875,-2.49219 z m 64,0 c 2.96655,-0.17918 5.5521,1.98975 6.35743,5.95899 0.58107,4.78795 -1.84116,7.46623 -6.63868,7.37695 -6.27369,-0.60653 -8.47914,-6.00421 -4.59375,-10.84375 1.55918,-1.52558 3.25536,-2.39436 4.875,-2.49219 z"
     transform="matrix(0.89689692,0,0,0.89689692,26.394071,26.395571)" />
  <path
     d="m 220.12381,26.395571 71.75175,0 c 11.92873,0 21.52553,9.596797 21.52553,21.525526 l 0,150.678683 78.65786,0 c 15.96476,0 23.94714,19.28328 12.64624,30.58418 L 268.28717,365.69168 c -6.72673,6.72672 -17.75856,6.72672 -24.48529,0 L 107.20448,229.18396 c -11.300898,-11.3009 -3.31852,-30.58418 12.64625,-30.58418 l 78.74755,0 0,-150.678683 c 0,-11.928729 9.5968,-21.525526 21.52553,-21.525526 z m 265.48148,337.233239 0,100.45246 c 0,11.92873 -9.59679,21.52552 -21.52552,21.52552 l -416.160173,0 c -11.928729,0 -21.525526,-9.59679 -21.525526,-21.52552 l 0,-100.45246 c 0,-11.92873 9.596797,-21.52552 21.525526,-21.52552 l 131.574783,0 43.94794,43.94795 c 18.02763,18.02762 47.08709,18.02762 65.11472,0 l 43.94795,-43.94795 131.57478,0 c 11.92873,0 21.52552,9.59679 21.52552,21.52552 z m -111.21521,78.92693 c 0,-9.86586 -8.07208,-17.93794 -17.93794,-17.93794 -9.86587,0 -17.93794,8.07208 -17.93794,17.93794 0,9.86587 8.07207,17.93794 17.93794,17.93794 9.86586,0 17.93794,-8.07207 17.93794,-17.93794 z m 57.4014,0 c 0,-9.86586 -8.07207,-17.93794 -17.93794,-17.93794 -9.86587,0 -17.93794,8.07208 -17.93794,17.93794 0,9.86587 8.07207,17.93794 17.93794,17.93794 9.86587,0 17.93794,-8.07207 17.93794,-17.93794 z"
     id="path4"
     inkscape:connector-curvature="0" />
</svg>
